<?xml version="1.0" standalone="no"?>
<!DOCTYPE svg PUBLIC "-//W3C//DTD SVG 20010904//EN"
 "http://www.w3.org/TR/2001/REC-SVG-20010904/DTD/svg10.dtd">
<svg version="1.0" xmlns="http://www.w3.org/2000/svg"
 width="45.000000pt" height="43.000000pt" viewBox="0 0 45.000000 43.000000"
 preserveAspectRatio="xMidYMid meet">

<g transform="translate(0.000000,43.000000) scale(0.100000,-0.100000)"
fill="#000000" stroke="none">
<path d="M343 262 c-37 -14 -43 -20 -43 -45 0 -19 4 -28 13 -24 6 2 36 13 64
23 51 18 69 36 57 55 -8 13 -43 10 -91 -9z"/>
<path d="M138 187 c-56 -21 -74 -39 -62 -59 8 -12 56 -5 107 16 29 13 37 22
37 41 0 30 -8 30 -82 2z"/>
</g>
</svg>
