<?xml version="1.0" standalone="no"?>
<!DOCTYPE svg PUBLIC "-//W3C//DTD SVG 20010904//EN"
 "http://www.w3.org/TR/2001/REC-SVG-20010904/DTD/svg10.dtd">
<svg version="1.0" xmlns="http://www.w3.org/2000/svg"
 width="1280.000000pt" height="1080.000000pt" viewBox="0 0 1280.000000 1080.000000"
 preserveAspectRatio="xMidYMid meet">

<g transform="translate(0.000000,1080.000000) scale(0.100000,-0.100000)"
fill="#000000" stroke="none">
<path d="M0 5400 l0 -5400 955 0 c525 0 955 3 955 8 0 4 -7 29 -15 56 -20 65
-19 225 0 301 33 125 111 249 205 323 l50 40 -31 38 c-46 58 -97 165 -115 242
-20 81 -14 243 11 313 l16 47 -69 70 c-50 51 -80 92 -109 153 -53 109 -68 173
-67 289 1 78 7 112 33 190 l32 96 -34 56 c-58 96 -82 187 -81 308 0 194 77
358 223 477 l55 45 1 136 c1 149 16 209 80 318 40 68 139 169 207 211 49 30
60 42 69 77 38 141 176 307 317 380 l73 37 -3 232 c-3 218 -5 236 -27 292 -32
78 -40 239 -18 335 l15 65 -57 60 c-100 105 -155 227 -167 375 l-7 83 -76 76
c-60 60 -86 96 -118 161 -51 105 -65 166 -65 278 1 139 38 253 119 365 l35 47
-45 49 c-96 108 -150 252 -150 401 0 142 44 281 117 367 14 17 26 36 26 42 0
5 -18 29 -39 52 -54 58 -98 134 -128 221 -39 108 -37 287 3 393 4 9 -12 18
-53 30 -202 58 -365 219 -429 423 -8 26 -17 85 -20 132 -11 158 40 308 148
440 l54 65 -28 50 c-72 129 -94 314 -54 450 42 143 143 280 259 352 62 39 145
78 181 84 17 4 18 14 17 114 -2 130 13 197 67 299 41 79 130 180 199 226 l46
30 -1281 0 -1282 0 0 -5400z"/>
<path d="M7078 33 c-380 -3 -438 -5 -438 -18 0 -13 359 -15 3080 -15 3073 0
3080 0 3080 20 0 20 -6 20 -2642 18 -1454 -2 -2840 -4 -3080 -5z"/>
<path d="M3087 24 c-18 -18 -1 -24 69 -24 56 0 75 3 72 12 -5 14 -129 24 -141
12z"/>
</g>
</svg>
