<?xml version="1.0" standalone="no"?>
<!DOCTYPE svg PUBLIC "-//W3C//DTD SVG 20010904//EN"
 "http://www.w3.org/TR/2001/REC-SVG-20010904/DTD/svg10.dtd">
<svg version="1.0" xmlns="http://www.w3.org/2000/svg"
 width="393.000000pt" height="852.000000pt" viewBox="0 0 393.000000 852.000000"
 preserveAspectRatio="xMidYMid meet">

<g transform="translate(0.000000,852.000000) scale(0.100000,-0.100000)"
fill="#000000" stroke="none">
<path d="M2215 7558 c-11 -7 -51 -11 -89 -11 -62 1 -73 -2 -105 -28 -21 -16
-59 -33 -91 -40 -30 -6 -68 -23 -85 -37 -79 -66 -176 -80 -262 -37 l-51 26
-38 -26 c-49 -33 -71 -38 -147 -33 -43 2 -72 10 -92 24 l-28 21 -50 -31 c-45
-28 -59 -31 -127 -31 l-77 0 -17 -42 c-54 -131 -225 -174 -343 -87 -30 23 -33
23 -69 8 -26 -11 -59 -15 -106 -12 -86 5 -141 40 -178 115 -19 39 -29 50 -43
47 -40 -12 -125 17 -171 57 l-46 41 0 -951 0 -951 38 25 c59 39 134 51 206 33
55 -15 61 -14 90 3 114 67 278 29 346 -79 24 -38 28 -40 85 -44 101 -7 181
-61 223 -151 15 -31 30 -47 61 -60 53 -24 115 -95 131 -152 l13 -45 82 0 c52
0 96 6 120 16 24 10 61 14 102 13 61 -2 65 -1 101 33 44 43 83 64 137 74 30 5
51 19 84 56 62 69 110 92 196 92 58 1 79 -4 123 -27 l54 -28 34 26 c82 63 200
71 290 21 l47 -26 26 24 c57 53 151 78 222 58 l36 -10 6 49 c7 56 25 95 69
144 50 58 101 79 188 80 79 0 137 -21 187 -67 21 -20 24 -20 63 -4 153 61 336
-43 357 -204 l5 -38 62 -4 c37 -2 78 -12 104 -26 l42 -22 0 958 0 958 -67 0
c-74 0 -128 21 -172 68 -24 25 -24 25 -48 6 -36 -28 -123 -45 -171 -33 -35 9
-41 8 -63 -15 -52 -55 -153 -77 -228 -51 -27 9 -40 8 -74 -7 -64 -29 -151 -25
-210 9 -26 16 -53 37 -60 48 -9 14 -23 19 -57 19 -79 0 -120 18 -176 76 -29
30 -57 54 -62 54 -25 0 -103 63 -122 99 l-20 41 -83 0 c-45 0 -91 -6 -102 -12z"/>
</g>
</svg>
