<svg width="1920" height="1080" viewBox="0 0 1920 1080" fill="none" xmlns="http://www.w3.org/2000/svg">
<g clip-path="url(#clip0_1_11)">
<rect width="1920" height="1080" fill="white"/>
<rect width="1920" height="1080" fill="#8047C9"/>
<g filter="url(#filter0_d_1_11)">
<path fill-rule="evenodd" clip-rule="evenodd" d="M941 -4.62173C937.784 2.76841 936 10.9259 936 19.5C936 20.0011 936.006 20.5008 936.018 20.999C910.105 27.8384 891 51.4381 891 79.5C891 83.598 891.407 87.6008 892.184 91.4702C865.177 97.5362 845 121.662 845 150.5C845 163.011 848.798 174.636 855.303 184.283C842.847 195.365 835 211.516 835 229.5C835 259.298 856.543 284.065 884.903 289.075C882.381 295.735 881 302.956 881 310.5C881 328.38 888.756 344.448 901.088 355.524C891.697 366.184 886 380.177 886 395.5C886 413.111 893.525 428.965 905.535 440.022C895.878 450.742 890 464.935 890 480.5C890 501.153 900.349 519.389 916.143 530.305C916.048 531.691 916 533.09 916 534.5C916 553.467 924.728 570.396 938.388 581.489C936.193 587.753 935 594.487 935 601.5C935 610.925 937.155 619.847 941 627.8V659.5V672.561C921.504 679.582 906.653 696.33 902.303 716.95C882.008 726.715 868 747.471 868 771.5C868 776.184 868.532 780.743 869.54 785.121C852.404 795.803 841 814.82 841 836.5C841 850.166 845.531 862.773 853.172 872.902C848.596 881.418 846 891.156 846 901.5C846 921.349 855.558 938.965 870.323 949.997C867.534 956.953 866 964.547 866 972.5C866 988.2 871.98 1002.5 881.787 1013.26C865.63 1024.12 855 1042.57 855 1063.5C855 1096.91 882.087 1124 915.5 1124C942.461 1124 965.303 1106.36 973.119 1082H1404V-9H1049.88C1039.69 -28.0442 1019.61 -41 996.5 -41C973.391 -41 953.309 -28.0442 943.12 -9H941V-4.62173Z" fill="#CCCCCC" fill-opacity="0.65" shape-rendering="crispEdges"/>
</g>
<g filter="url(#filter1_d_1_11)">
<path fill-rule="evenodd" clip-rule="evenodd" d="M1102 -44C1074.39 -44 1052 -21.6142 1052 6C1052 13.3855 1053.6 20.3969 1056.48 26.7061C1050.51 34.9385 1047 45.0589 1047 56C1047 59.4129 1047.34 62.7459 1047.99 65.9666C1028.75 72.9256 1015 91.3569 1015 113C1015 116.216 1015.3 119.361 1015.88 122.407C1006.7 131.474 1001 144.072 1001 158C1001 166.248 1003 174.03 1006.53 180.888C993.521 189.916 985 204.963 985 222C985 249.614 1007.39 272 1035 272C1036.38 272 1037.74 271.944 1039.09 271.835C1042.43 279.554 1047.66 286.264 1054.19 291.384C1052.13 296.863 1051 302.799 1051 309C1051 324.722 1058.26 338.749 1069.6 347.915C1058.83 357.086 1052 370.745 1052 386C1052 386.752 1052.02 387.5 1052.05 388.244C1042.76 397.322 1037 409.988 1037 424C1037 434.046 1039.96 443.4 1045.06 451.237C1036.36 460.234 1031 472.492 1031 486C1031 488.031 1031.12 490.034 1031.36 492.001C1031.29 492.001 1031.22 492 1031.15 492L1031 492C1003.39 492 981 514.386 981 542C981 553.318 984.761 563.758 991.1 572.138C988.462 578.226 987 584.942 987 592C987 616.013 1003.93 636.072 1026.5 640.896C1026.17 643.216 1026 645.588 1026 648C1026 658.001 1028.94 667.315 1033.99 675.13C1018.5 683.625 1008 700.086 1008 719C1008 730.533 1011.91 741.155 1018.47 749.614C1004.37 758.456 995 774.134 995 792C995 795.782 995.42 799.466 996.216 803.008C980.603 811.467 970 827.995 970 847C970 851.416 970.573 855.699 971.647 859.777C955.799 868.164 945 884.821 945 904C945 919.187 951.771 932.792 962.459 941.962C961.506 945.818 961 949.85 961 954C961 966.39 965.507 977.727 972.97 986.462C962.565 995.625 956 1009.05 956 1024C956 1044.57 968.418 1062.23 986.165 1069.91C986.056 1071.26 986 1072.62 986 1074C986 1101.61 1008.39 1124 1036 1124C1053.67 1124 1069.2 1114.84 1078.09 1101H1251V1086H1319V0H1151.64C1148.68 -24.7854 1127.58 -44 1102 -44ZM1081 198.004V202.158L1080.91 202.165C1080.46 201.128 1079.98 200.11 1079.47 199.112C1079.98 198.752 1080.5 198.382 1081 198.004Z" fill="#DEDEDE" fill-opacity="0.75" shape-rendering="crispEdges"/>
</g>
<g filter="url(#filter2_d_1_11)">
<path fill-rule="evenodd" clip-rule="evenodd" d="M1211 -93C1155.77 -93 1111 -48.2285 1111 7C1111 34.0585 1121.75 58.6069 1139.21 76.6097C1094.96 86.925 1062 126.613 1062 174C1062 223.133 1097.43 263.99 1144.14 272.41C1138.9 284.551 1136 297.936 1136 312C1136 322.957 1137.76 333.502 1141.02 343.368C1111.12 360.655 1091 392.978 1091 430C1091 447.411 1095.45 463.784 1103.27 478.041C1069.96 494.265 1047 528.451 1047 568C1047 594.816 1057.56 619.167 1074.74 637.124C1066.63 651.576 1062 668.248 1062 686C1062 715.867 1075.09 742.676 1095.85 761C1075.09 779.324 1062 806.133 1062 836C1062 886.3 1099.14 927.926 1147.49 934.955C1150.27 963.062 1164.68 987.749 1185.85 1004.13C1133.01 1006.81 1091 1050.5 1091 1104C1091 1159.23 1135.77 1204 1191 1204C1246.23 1204 1291 1159.23 1291 1104C1291 1095.73 1290 1087.69 1288.1 1080H1920V0H1310.76C1307.17 -51.9625 1263.88 -93 1211 -93Z" fill="#F8F8F8"/>
</g>
</g>
<defs>
<filter id="filter0_d_1_11" x="806" y="-41" width="598" height="1173" filterUnits="userSpaceOnUse" color-interpolation-filters="sRGB">
<feFlood flood-opacity="0" result="BackgroundImageFix"/>
<feColorMatrix in="SourceAlpha" type="matrix" values="0 0 0 0 0 0 0 0 0 0 0 0 0 0 0 0 0 0 127 0" result="hardAlpha"/>
<feOffset dx="-25" dy="4"/>
<feGaussianBlur stdDeviation="2"/>
<feComposite in2="hardAlpha" operator="out"/>
<feColorMatrix type="matrix" values="0 0 0 0 0 0 0 0 0 0 0 0 0 0 0 0 0 0 0.05 0"/>
<feBlend mode="normal" in2="BackgroundImageFix" result="effect1_dropShadow_1_11"/>
<feBlend mode="normal" in="SourceGraphic" in2="effect1_dropShadow_1_11" result="shape"/>
</filter>
<filter id="filter1_d_1_11" x="926" y="-44" width="393" height="1182" filterUnits="userSpaceOnUse" color-interpolation-filters="sRGB">
<feFlood flood-opacity="0" result="BackgroundImageFix"/>
<feColorMatrix in="SourceAlpha" type="matrix" values="0 0 0 0 0 0 0 0 0 0 0 0 0 0 0 0 0 0 127 0" result="hardAlpha"/>
<feOffset dx="-15" dy="10"/>
<feGaussianBlur stdDeviation="2"/>
<feComposite in2="hardAlpha" operator="out"/>
<feColorMatrix type="matrix" values="0 0 0 0 0 0 0 0 0 0 0 0 0 0 0 0 0 0 0.05 0"/>
<feBlend mode="normal" in2="BackgroundImageFix" result="effect1_dropShadow_1_11"/>
<feBlend mode="normal" in="SourceGraphic" in2="effect1_dropShadow_1_11" result="shape"/>
</filter>
<filter id="filter2_d_1_11" x="1033" y="-93" width="887" height="1311" filterUnits="userSpaceOnUse" color-interpolation-filters="sRGB">
<feFlood flood-opacity="0" result="BackgroundImageFix"/>
<feColorMatrix in="SourceAlpha" type="matrix" values="0 0 0 0 0 0 0 0 0 0 0 0 0 0 0 0 0 0 127 0" result="hardAlpha"/>
<feOffset dx="-10" dy="10"/>
<feGaussianBlur stdDeviation="2"/>
<feComposite in2="hardAlpha" operator="out"/>
<feColorMatrix type="matrix" values="0 0 0 0 0.23 0 0 0 0 0.23 0 0 0 0 0.23 0 0 0 0.075 0"/>
<feBlend mode="normal" in2="BackgroundImageFix" result="effect1_dropShadow_1_11"/>
<feBlend mode="normal" in="SourceGraphic" in2="effect1_dropShadow_1_11" result="shape"/>
</filter>
<clipPath id="clip0_1_11">
<rect width="1920" height="1080" fill="white"/>
</clipPath>
</defs>
</svg>
