<?xml version="1.0" standalone="no"?>
<!DOCTYPE svg PUBLIC "-//W3C//DTD SVG 20010904//EN"
 "http://www.w3.org/TR/2001/REC-SVG-20010904/DTD/svg10.dtd">
<svg version="1.0" xmlns="http://www.w3.org/2000/svg"
 width="1920.000000pt" height="1080.000000pt" viewBox="0 0 1920.000000 1080.000000"
 preserveAspectRatio="xMidYMid meet">

<g transform="translate(0.000000,1080.000000) scale(0.100000,-0.100000)"
fill="#000000" stroke="none">
<path d="M0 5400 l0 -5400 4285 0 4285 0 -7 43 c-16 89 -9 228 17 306 29 92
103 204 176 270 l56 49 -42 60 c-104 153 -136 349 -85 518 l15 51 -68 69
c-169 172 -218 436 -123 656 l20 48 -34 57 c-101 171 -111 390 -26 565 38 79
107 167 169 215 l48 38 0 125 c-1 106 3 136 23 198 43 131 133 248 250 326 63
41 67 47 85 107 41 133 167 279 297 341 l68 33 1 219 c0 210 -1 223 -26 294
-34 98 -42 221 -20 321 l15 74 -58 64 c-97 105 -160 262 -161 396 0 46 -3 50
-78 125 -58 57 -87 96 -115 153 -99 202 -85 431 39 611 l46 68 -46 52 c-173
198 -192 504 -45 723 l47 69 -49 55 c-61 68 -115 177 -135 272 -18 84 -14 215
9 290 l14 45 -75 24 c-43 13 -105 43 -148 72 -315 211 -365 633 -109 917 l34
38 -34 70 c-122 243 -63 540 143 723 56 50 173 115 227 126 l30 5 0 117 c0
144 25 230 97 338 76 114 175 192 301 239 43 16 47 21 47 50 0 32 15 123 26
158 5 16 -223 17 -4690 17 l-4696 0 0 -5400z"/>
</g>
</svg>
